<svg width="85" height="40" viewBox="0 0 85 40" fill="none" xmlns="http://www.w3.org/2000/svg">
<g clip-path="url(#clip0_816_353)">
<path d="M61.9497 10.8994H56.8774V29.7135H61.9497V10.8994Z" fill="black"/>
<path d="M29.4293 0H24.3835V29.7402H29.4293V0Z" fill="black"/>
<path d="M44.1445 10.6063C42.4802 10.6063 40.9215 11.0327 39.5478 11.7789V10.9528H34.4756V39.9734H39.5478V28.9408C40.9215 29.6869 42.4802 30.1133 44.1445 30.1133C49.4809 30.1133 53.8135 25.7429 53.8135 20.3598C53.8135 14.9767 49.4809 10.6063 44.1445 10.6063ZM44.1445 24.9701C41.6084 24.9701 39.5742 22.9181 39.5742 20.3598C39.5742 17.8015 41.6348 15.7496 44.1445 15.7496C46.6807 15.7496 48.7148 17.8282 48.7148 20.3598C48.7148 22.8915 46.6807 24.9701 44.1445 24.9701Z" fill="black"/>
<path d="M14.2128 29.6869H19.2851V10.8994H14.2393V11.7788C13.7637 11.5123 13.2618 11.2992 12.7599 11.1393C11.7824 10.7928 10.7521 10.6329 9.66896 10.6329C8.58583 10.6329 7.55553 10.8195 6.57807 11.1393C2.74747 12.4184 0 16.0693 0 20.3598C0 24.6503 2.74747 28.3012 6.57807 29.5803C7.55553 29.9267 8.58583 30.0866 9.66896 30.0866C10.7521 30.0866 11.7824 29.9001 12.7599 29.5803C13.2618 29.4204 13.7637 29.1806 14.2393 28.9407L14.2128 29.6869ZM9.66896 25.0766C7.13284 25.0766 5.09866 22.998 5.09866 20.4664C5.09866 17.9081 7.15926 15.8561 9.66896 15.8561C12.2051 15.8561 14.2393 17.9347 14.2393 20.4664C14.2393 23.0247 12.1787 25.0766 9.66896 25.0766Z" fill="black"/>
<path d="M84.1412 10.9526L80.8126 15.6961H74.6044L77.933 10.9526H84.1412Z" fill="black"/>
<path d="M84.5905 29.7135H78.3295L74.6046 24.5702L71.0117 29.7135H64.7771L71.4608 20.1732L71.4872 20.1465L68.3699 15.6961L65.0149 10.9526H71.2759L74.6046 15.6961L77.7219 20.1732L84.5905 29.7135Z" fill="black"/>
<path d="M29.4295 34.8834H24.3837V39.9734H29.4295V34.8834Z" fill="#FC5656"/>
<path d="M56.878 0H51.8058V5.11659H56.878V0Z" fill="#B32FD3"/>
<path d="M29.4295 34.8834H24.3837V39.9734H29.4295V34.8834Z" fill="url(#paint0_linear_816_353)"/>
<path d="M56.878 0H51.8058V5.11659H56.878V0Z" fill="url(#paint1_linear_816_353)"/>
</g>
<defs>
<linearGradient id="paint0_linear_816_353" x1="24.3708" y1="19.9939" x2="56.8824" y2="19.9939" gradientUnits="userSpaceOnUse">
<stop offset="9.48346e-07" stop-color="#FC5656"/>
<stop offset="0.9955" stop-color="#B32FD3"/>
</linearGradient>
<linearGradient id="paint1_linear_816_353" x1="24.3711" y1="19.9938" x2="56.8827" y2="19.9938" gradientUnits="userSpaceOnUse">
<stop offset="9.48346e-07" stop-color="#FC5656"/>
<stop offset="0.9955" stop-color="#B32FD3"/>
</linearGradient>
<clipPath id="clip0_816_353">
<rect width="84.5902" height="40" fill="white"/>
</clipPath>
</defs>
</svg>
