<svg width="234" height="234" viewBox="0 0 234 234" fill="none" xmlns="http://www.w3.org/2000/svg">
<path d="M214 0H20C8.95431 0 0 8.9543 0 20V214C0 225.046 8.9543 234 20 234H214C225.046 234 234 225.046 234 214V20C234 8.95431 225.046 0 214 0Z" fill="black"/>
<path d="M114.448 65V71.3721C107.033 67.3263 98.5172 65 89.5 65C60.4447 65 37 88.7691 37 118C37 147.332 60.5449 171 89.5 171C98.5172 171 107.033 168.674 114.448 164.628V168.168H142V65H114.448ZM89.5 143.185C75.7739 143.185 64.6527 131.958 64.6527 118.101C64.6527 104.244 75.7739 93.0172 89.5 93.0172C103.226 93.0172 114.347 104.244 114.347 118.101C114.347 131.958 103.226 143.185 89.5 143.185Z" fill="white"/>
<path d="M198.854 139.876H170.773V167.957H198.854V139.876Z" fill="#B32FD3"/>
<path d="M198.854 139.876H170.773V167.957H198.854V139.876Z" fill="url(#paint0_linear_608_69)"/>
<defs>
<linearGradient id="paint0_linear_608_69" x1="170.799" y1="153.923" x2="198.872" y2="153.923" gradientUnits="userSpaceOnUse">
<stop offset="9.48346e-07" stop-color="#FC5656"/>
<stop offset="0.9955" stop-color="#B32FD3"/>
</linearGradient>
</defs>
</svg>
